<svg width="263" height="32" viewBox="0 0 263 32" fill="none" xmlns="http://www.w3.org/2000/svg">
<g clip-path="url(#clip0_642_5001)">
<path d="M10.3626 31.4069L0.366577 3.69336H7.69861L16.3748 28.2258H12.7088L21.8006 3.69336H28.3505L37.0756 28.2258H33.6296L42.5502 3.69336H49.2957L39.2997 31.38H31.7232L24.0002 9.81298H26.0042L18.0612 31.38L10.3626 31.4069Z" fill="black" stroke="#231815" stroke-width="0.2" stroke-miterlimit="10"/>
<path d="M56.5055 7.17103C55.4148 7.22423 54.3393 6.87307 53.4505 6.17355C53.0824 5.90587 52.7804 5.54163 52.5714 5.11346C52.3623 4.6853 52.2529 4.20661 52.2529 3.72032C52.2551 3.23448 52.3654 2.75666 52.5742 2.32888C52.7831 1.90111 53.084 1.53648 53.4505 1.26707C54.3393 0.567554 55.4148 0.216414 56.5055 0.269608C57.5882 0.224038 58.6567 0.554026 59.5605 1.21316C59.9218 1.47365 60.2183 1.82955 60.4232 2.24857C60.628 2.66758 60.7348 3.13642 60.7336 3.61248C60.7365 4.1048 60.634 4.5909 60.4344 5.03125C60.2348 5.47161 59.9438 5.85377 59.585 6.14661C58.6926 6.86151 57.6074 7.22253 56.5055 7.17103ZM53.0839 31.4339V10.1635H59.9027V31.4339H53.0839Z" fill="black" stroke="#231815" stroke-width="0.2" stroke-miterlimit="10"/>
<path d="M74.1269 31.7304C72.181 31.7369 70.2398 31.5201 68.3346 31.0834C66.8105 30.7772 65.3362 30.223 63.9598 29.4389L66.2327 25.0177C67.4468 25.6743 68.7264 26.172 70.0454 26.5004C71.4709 26.8731 72.9307 27.0631 74.3957 27.0666C75.5238 27.1493 76.6552 26.9749 77.7196 26.5544C77.9982 26.4564 78.2433 26.2673 78.4223 26.0121C78.6013 25.7569 78.7057 25.4477 78.7216 25.1255C78.709 24.8721 78.6278 24.6287 78.4883 24.4268C78.3489 24.2249 78.1577 24.0739 77.9395 23.9933C77.2883 23.7088 76.6065 23.5185 75.911 23.4271L73.1493 23.0227C72.1472 23.0227 71.1207 22.7262 70.1187 22.5105C69.1545 22.3 68.2184 21.9558 67.3325 21.4861C66.526 21.0757 65.8216 20.456 65.2795 19.6799C64.7541 18.8021 64.4893 17.7657 64.5219 16.7144C64.5234 15.3808 64.9868 14.0982 65.8172 13.1289C66.856 11.982 68.1431 11.1468 69.5566 10.7026C71.4484 10.0658 73.4202 9.76547 75.3977 9.81297C77.0368 9.81748 78.6723 9.97985 80.2858 10.2982C81.7205 10.5481 83.1181 11.0106 84.4406 11.6731L82.1677 16.0674C81.076 15.4815 79.9164 15.0642 78.7216 14.8273C77.6262 14.5944 76.5133 14.477 75.3977 14.4768C74.266 14.405 73.1333 14.5979 72.0739 15.043C71.3896 15.4204 71.023 15.8787 71.023 16.4718C71.0292 16.7336 71.1073 16.9871 71.2469 17.1989C71.3866 17.4107 71.5812 17.5708 71.805 17.658C72.452 17.9671 73.1347 18.1758 73.8336 18.278C74.6645 18.4398 75.5933 18.5746 76.5953 18.7094C77.5974 18.8442 78.5994 19.0059 79.6259 19.2216C80.587 19.4445 81.5219 19.7882 82.412 20.246C83.2028 20.6601 83.8967 21.2688 84.4406 22.0253C84.9886 22.8825 85.2636 23.9159 85.2227 24.9638C85.2247 25.6153 85.109 26.2608 84.8824 26.8625C84.6558 27.4643 84.3228 28.0102 83.9029 28.4684C82.8487 29.601 81.5551 30.4257 80.1391 30.8677C78.1852 31.4839 76.1587 31.7747 74.1269 31.7304Z" fill="black" stroke="#231815" stroke-width="0.2" stroke-miterlimit="10"/>
<path d="M103.675 9.81294C105.39 9.78869 107.092 10.1368 108.685 10.8374C110.092 11.4612 111.299 12.5306 112.156 13.9107C113.054 15.5282 113.489 17.4077 113.402 19.3024V31.4878H106.608V20.2729C106.662 19.5776 106.578 18.8777 106.363 18.2215C106.148 17.5652 105.806 16.9682 105.361 16.4718C104.373 15.5814 103.115 15.1381 101.842 15.2317C100.844 15.2179 99.8547 15.4289 98.9336 15.8517C98.1021 16.2324 97.4008 16.8928 96.9295 17.7388C96.4268 18.7242 96.1815 19.844 96.2207 20.9739V31.4878H89.4019V2.07581H96.2207V16.0404L94.681 14.2611C95.5671 12.7962 96.8253 11.6521 98.2981 10.9722C99.9956 10.1697 101.828 9.77456 103.675 9.81294Z" fill="black" stroke="#231815" stroke-width="0.2" stroke-miterlimit="10"/>
<path d="M132.392 31.4069V3.69336H147.325C150.319 3.48741 153.308 4.17662 155.977 5.6883C156.849 6.17547 157.583 6.91928 158.096 7.8375C158.609 8.75573 158.882 9.81261 158.885 10.8913C158.913 12.2633 158.498 13.6014 157.712 14.6656C156.861 15.8009 155.746 16.6585 154.486 17.1458C152.977 17.7574 151.376 18.0501 149.769 18.0084L150.6 16.3909C152.371 16.3239 154.139 16.5882 155.83 17.1727C157.176 17.636 158.378 18.5043 159.301 19.6799C160.143 20.8296 160.585 22.2732 160.547 23.7507C160.557 24.905 160.271 26.039 159.722 27.0217C159.173 28.0044 158.383 28.7956 157.443 29.3041C154.611 30.8254 151.471 31.5127 148.327 31.2991L132.392 31.4069ZM139.431 26.5813H147.667C149.098 26.6662 150.527 26.3896 151.846 25.7726C152.307 25.5404 152.69 25.1564 152.944 24.6735C153.198 24.1906 153.31 23.6326 153.264 23.0767C153.31 22.5207 153.198 21.9628 152.944 21.4799C152.69 20.997 152.307 20.613 151.846 20.3808C150.533 19.7402 149.101 19.4537 147.667 19.5451H138.893V14.8543H146.445C147.804 14.935 149.162 14.6578 150.404 14.0455C150.831 13.8311 151.193 13.4858 151.447 13.0508C151.7 12.6158 151.835 12.1095 151.835 11.5923C151.835 11.0751 151.7 10.5687 151.447 10.1338C151.193 9.69877 150.831 9.35346 150.404 9.13902C149.162 8.52675 147.804 8.24954 146.445 8.33027H139.431V26.5813Z" fill="black" stroke="#231815" stroke-width="0.2" stroke-miterlimit="10"/>
<path d="M176.482 31.7304C174.199 31.7859 171.932 31.2986 169.834 30.3016C168.022 29.472 166.438 28.1337 165.24 26.4195C164.144 24.7794 163.553 22.7955 163.553 20.7582C163.553 18.7209 164.144 16.737 165.24 15.0969C166.438 13.3827 168.022 12.0443 169.834 11.2148C174.096 9.34629 178.844 9.34629 183.105 11.2148C184.879 12.0528 186.428 13.3804 187.602 15.0699C188.682 16.7224 189.263 18.7077 189.263 20.7447C189.263 22.7817 188.682 24.767 187.602 26.4195C186.41 28.14 184.824 29.4798 183.008 30.3016C180.948 31.2813 178.724 31.7683 176.482 31.7304ZM176.482 26.6621C177.535 26.6882 178.58 26.4485 179.537 25.9612C180.407 25.5134 181.144 24.8031 181.663 23.9124C182.218 22.9863 182.499 21.8942 182.47 20.7851C182.498 19.6593 182.217 18.5503 181.663 17.604C181.136 16.728 180.4 16.0286 179.537 15.5821C178.576 15.1094 177.534 14.8703 176.482 14.8812C175.429 14.8652 174.387 15.1045 173.427 15.5821C172.561 16.0347 171.819 16.7323 171.276 17.604C170.704 18.542 170.413 19.6549 170.445 20.7851C170.413 21.8986 170.704 22.9942 171.276 23.9124C171.811 24.7984 172.555 25.5068 173.427 25.9612C174.383 26.4513 175.428 26.6911 176.482 26.6621Z" fill="black" stroke="#231815" stroke-width="0.2" stroke-miterlimit="10"/>
<path d="M200.751 31.7304C199.145 31.7762 197.546 31.4928 196.034 30.8947C194.863 30.4308 193.825 29.6305 193.028 28.5763C192.364 27.6312 192.004 26.4694 192.004 25.2738C192.004 24.0782 192.364 22.9165 193.028 21.9714C193.892 20.8934 195.021 20.116 196.279 19.7338C198.16 19.1365 200.114 18.8637 202.071 18.925H208.327V22.5645H202.828C201.688 22.4449 200.54 22.698 199.529 23.2923C199.255 23.4818 199.029 23.7439 198.871 24.0548C198.713 24.3657 198.629 24.7153 198.625 25.0716C198.626 25.4555 198.722 25.8318 198.903 26.1597C199.084 26.4876 199.343 26.7546 199.651 26.9318C200.518 27.4547 201.5 27.6976 202.486 27.6327C203.542 27.6504 204.587 27.4014 205.541 26.9048C206.399 26.4569 207.09 25.6947 207.497 24.7481L208.547 27.6057C208.041 28.9939 207.07 30.1137 205.835 30.7329C204.229 31.4822 202.492 31.8231 200.751 31.7304ZM207.912 31.4069V27.2553L207.472 26.3656V18.925C207.495 18.3265 207.384 17.7309 207.15 17.1904C206.915 16.65 206.565 16.1811 206.128 15.8248C204.908 14.9881 203.479 14.601 202.046 14.7195C200.808 14.7227 199.576 14.904 198.38 15.2586C197.286 15.5479 196.245 16.0401 195.301 16.7144L192.857 12.401C194.298 11.5031 195.856 10.8574 197.476 10.4869C199.28 10.0334 201.125 9.8073 202.975 9.81297C205.899 9.63209 208.804 10.4309 211.309 12.1045C212.32 12.9195 213.125 14.0065 213.646 15.2618C214.168 16.517 214.39 17.8988 214.291 19.2755V31.4069H207.912Z" fill="black" stroke="#231815" stroke-width="0.2" stroke-miterlimit="10"/>
<path d="M220.425 31.4069V10.1365H226.926V16.1483L226.022 14.396C226.748 12.8642 227.931 11.6551 229.37 10.9722C231.159 10.1575 233.082 9.7627 235.016 9.81298V15.5013H234.234H233.476C231.868 15.4169 230.279 15.9191 228.955 16.9301C228.369 17.4792 227.908 18.1731 227.611 18.9553C227.314 19.7376 227.188 20.5862 227.244 21.4322V31.4608L220.425 31.4069Z" fill="black" stroke="#231815" stroke-width="0.2" stroke-miterlimit="10"/>
<path d="M248.947 31.7304C246.886 31.7641 244.843 31.3042 242.959 30.3825C241.266 29.5449 239.806 28.2233 238.731 26.5543C237.687 24.8541 237.149 22.8378 237.191 20.7851C237.146 18.7151 237.684 16.6805 238.731 14.9621C239.8 13.2939 241.262 11.9795 242.959 11.1609C244.843 10.2392 246.886 9.77927 248.947 9.81295C250.733 9.77723 252.503 10.1825 254.128 10.9991C255.594 11.7721 256.8 13.0366 257.574 14.6116C258.45 16.5218 258.87 18.6463 258.796 20.7851C258.867 22.909 258.464 25.0195 257.623 26.9317C256.889 28.5116 255.704 29.781 254.25 30.5442C252.589 31.3845 250.774 31.7904 248.947 31.7304ZM250.12 26.6621C251.158 26.6857 252.186 26.4459 253.126 25.9612C253.999 25.5068 254.742 24.7984 255.277 23.9124C255.831 22.9863 256.113 21.8943 256.083 20.7851C256.112 19.6593 255.831 18.5503 255.277 17.604C254.735 16.7323 253.992 16.0347 253.126 15.5821C252.171 15.1204 251.139 14.882 250.096 14.882C249.052 14.882 248.021 15.1204 247.065 15.5821C246.192 16.034 245.442 16.7313 244.89 17.604C244.336 18.5503 244.055 19.6593 244.083 20.7851C244.054 21.8943 244.336 22.9863 244.89 23.9124C245.434 24.7994 246.186 25.5074 247.065 25.9612C248.021 26.4513 249.066 26.6911 250.12 26.6621ZM256.279 31.4069V27.0665L256.401 20.7312L256.035 14.4768V2.07581H262.853V31.4069H256.279Z" fill="black" stroke="#231815" stroke-width="0.2" stroke-miterlimit="10"/>
</g>
<defs>
<clipPath id="clip0_642_5001">
<rect width="263" height="32" fill="white"/>
</clipPath>
</defs>
</svg>
