<svg width="20" height="20" viewBox="0 0 20 20" fill="none" xmlns="http://www.w3.org/2000/svg">
<path d="M6.21662 3.17271L4.6213 2.61743L4.00056 0.477982C3.96073 0.3407 3.87398 0.219538 3.75367 0.133165C3.63337 0.0467921 3.48619 0 3.3348 0C3.18342 0 3.03624 0.0467921 2.91594 0.133165C2.79563 0.219538 2.70888 0.3407 2.66905 0.477982L2.04831 2.61743L0.452984 3.17271C0.320236 3.21806 0.205554 3.30072 0.124513 3.40946C0.0434724 3.51819 0 3.64774 0 3.78051C0 3.91327 0.0434724 4.04282 0.124513 4.15156C0.205554 4.2603 0.320236 4.34295 0.452984 4.38831L2.04003 4.94067L2.66595 7.28823C2.70359 7.42808 2.78975 7.55215 2.91082 7.64081C3.03188 7.72947 3.18093 7.77767 3.3344 7.77778C3.48787 7.77789 3.637 7.72991 3.75821 7.64142C3.87942 7.55294 3.96579 7.429 4.00366 7.2892L4.62958 4.94164L6.21662 4.38928C6.34882 4.34347 6.46287 4.26062 6.54336 4.15192C6.62384 4.04322 6.66689 3.91392 6.66667 3.78148C6.66667 3.50919 6.48768 3.26607 6.21662 3.17271Z" fill="#292929"/>
<path d="M6.21662 15.3949L4.6213 14.8397L4.00056 12.7002C3.96073 12.5629 3.87398 12.4418 3.75367 12.3554C3.63337 12.269 3.48619 12.2222 3.3348 12.2222C3.18342 12.2222 3.03624 12.269 2.91594 12.3554C2.79563 12.4418 2.70888 12.5629 2.66905 12.7002L2.0483 14.8397L0.452984 15.3949C0.320236 15.4403 0.205554 15.5229 0.124513 15.6317C0.0434724 15.7404 0 15.87 0 16.0027C0 16.1355 0.0434724 16.2651 0.124513 16.3738C0.205554 16.4825 0.320236 16.5652 0.452984 16.6105L2.04003 17.1629L2.66595 19.5105C2.70359 19.6503 2.78975 19.7744 2.91082 19.863C3.03188 19.9517 3.18093 19.9999 3.3344 20C3.48787 20.0001 3.637 19.9521 3.75821 19.8637C3.87942 19.7752 3.96579 19.6512 4.00366 19.5114L4.62958 17.1639L6.21662 16.6115C6.34882 16.5657 6.46287 16.4829 6.54336 16.3742C6.62384 16.2655 6.66689 16.1361 6.66667 16.0037C6.66667 15.7314 6.48768 15.4883 6.21662 15.3949Z" fill="#292929"/>
<path d="M19.2521 10.4832L16.5314 9.37558L15.5244 6.38303C15.4431 6.14029 15.296 5.93081 15.1031 5.78284C14.9102 5.63487 14.6806 5.55554 14.4454 5.55554C14.2102 5.55554 13.9807 5.63487 13.7878 5.78284C13.5949 5.93081 13.4478 6.14029 13.3665 6.38303L12.3595 9.37558L9.63981 10.4832C9.41952 10.573 9.2295 10.7348 9.09527 10.9468C8.96104 11.1589 8.88903 11.4111 8.88892 11.6695C8.8888 11.9279 8.96059 12.1801 9.09463 12.3923C9.22868 12.6045 9.41856 12.7665 9.63877 12.8566L12.3585 13.9641L13.3655 16.9567C13.4481 17.198 13.5956 17.4058 13.7884 17.5525C13.9812 17.6992 14.21 17.7778 14.4444 17.7778C14.6788 17.7778 14.9076 17.6992 15.1004 17.5525C15.2932 17.4058 15.4407 17.198 15.5233 16.9567L16.5303 13.9641L19.2511 12.8566C19.4709 12.7663 19.6604 12.6043 19.7943 12.3923C19.9281 12.1803 19.9999 11.9284 20 11.6703C20.0001 11.4122 19.9286 11.1602 19.7949 10.948C19.6613 10.7359 19.4719 10.5737 19.2521 10.4832Z" fill="#292929"/>
</svg>
