<svg width="90" height="90" viewBox="0 0 90 90" fill="none" xmlns="http://www.w3.org/2000/svg">
<rect width="90" height="90" rx="45" fill="#EBEBEB"/>
<path d="M44.8788 68.7736C38.6159 68.7736 35.3391 65.6782 34.9868 65.3233C34.7373 65.0773 34.5387 64.7845 34.4023 64.4618C34.266 64.139 34.1945 63.7926 34.192 63.4422C34.1895 63.0918 34.2561 62.7444 34.3879 62.4197C34.5197 62.0951 34.7141 61.7996 34.9601 61.5501C35.2061 61.3006 35.4989 61.102 35.8216 60.9656C36.1444 60.8292 36.4908 60.7578 36.8412 60.7553C37.1916 60.7528 37.539 60.8194 37.8637 60.9511C38.1883 61.0829 38.4838 61.2774 38.7333 61.5234C38.8694 61.6488 40.8841 63.4367 44.8788 63.4367C48.9322 63.4367 50.9442 61.5981 51.0296 61.5181C51.5421 61.038 52.2219 60.7773 52.924 60.7918C53.626 60.8063 54.2946 61.0947 54.7868 61.5954C55.2749 62.0935 55.5469 62.764 55.5439 63.4613C55.5409 64.1587 55.2631 64.8267 54.7708 65.3206C54.4186 65.6755 51.1417 68.7736 44.8788 68.7736ZM47.5473 55.4313H42.2104C41.5026 55.4313 40.8239 55.1501 40.3235 54.6497C39.823 54.1493 39.5419 53.4705 39.5419 52.7628C39.5419 52.0551 39.823 51.3764 40.3235 50.8759C40.8239 50.3755 41.5026 50.0944 42.2104 50.0944H47.5473C48.255 50.0944 48.9337 50.3755 49.4342 50.8759C49.9346 51.3764 50.2157 52.0551 50.2157 52.7628C50.2157 53.4705 49.9346 54.1493 49.4342 54.6497C48.9337 55.1501 48.255 55.4313 47.5473 55.4313Z" fill="#858585"/>
<path d="M31.5364 48.7602C30.8287 48.7602 30.1499 48.479 29.6495 47.9786C29.1491 47.4781 28.8679 46.7994 28.8679 46.0917V43.4232C28.8679 42.7155 29.1491 42.0368 29.6495 41.5363C30.1499 41.0359 30.8287 40.7548 31.5364 40.7548C32.2441 40.7548 32.9228 41.0359 33.4233 41.5363C33.9237 42.0368 34.2048 42.7155 34.2048 43.4232V46.0917C34.2048 46.7994 33.9237 47.4781 33.4233 47.9786C32.9228 48.479 32.2441 48.7602 31.5364 48.7602ZM58.221 48.7602C57.5133 48.7602 56.8346 48.479 56.3341 47.9786C55.8337 47.4781 55.5526 46.7994 55.5526 46.0917V43.4232C55.5526 42.7155 55.8337 42.0368 56.3341 41.5363C56.8346 41.0359 57.5133 40.7548 58.221 40.7548C58.9287 40.7548 59.6075 41.0359 60.1079 41.5363C60.6083 42.0368 60.8895 42.7155 60.8895 43.4232V46.0917C60.8895 46.7994 60.6083 47.4781 60.1079 47.9786C59.6075 48.479 58.9287 48.7602 58.221 48.7602Z" fill="#858585"/>
</svg>
