<svg width="20" height="20" viewBox="0 0 20 20" fill="none" xmlns="http://www.w3.org/2000/svg">
<path d="M18.8804 11.792C18.5846 11.396 18.2074 11.0678 17.7742 10.8297C16.9667 10.3097 16.4467 8.06417 16.3251 6.63718C16.33 5.61876 16.1151 4.61127 15.6951 3.68347C15.2751 2.75567 14.6599 1.92941 13.8914 1.26107C12.8137 0.440654 11.4959 -0.00247153 10.1414 1.03691e-05C10.0937 0.00549454 10.0454 0.00549454 9.99763 1.03691e-05C9.95355 0.00556312 9.90896 0.00556312 9.86489 1.03691e-05C8.52174 0.00477868 7.21681 0.447524 6.14807 1.26107C5.37732 1.9275 4.76052 2.75339 4.34033 3.68163C3.92014 4.60987 3.70659 5.6183 3.71444 6.63718C3.59276 8.06417 3.06179 10.3097 2.26533 10.8297C1.83212 11.0678 1.45493 11.396 1.15913 11.792C0.877823 12.1724 0.68507 12.6108 0.594971 13.0752V14.1814C0.597322 14.2836 0.627956 14.3832 0.683468 14.469C1.49099 16.5376 9.99763 16.5487 9.99763 16.5487C9.99763 16.5487 18.5043 16.5487 19.3228 14.469C19.3705 14.3804 19.397 14.282 19.4003 14.1814V13.0752C19.3291 12.6129 19.1511 12.1735 18.8804 11.792Z" fill="#C1C1C1"/>
<path d="M12.8754 17.9199C12.8754 17.9199 12.8754 17.7983 12.8754 17.7761C12.8564 17.7138 12.8176 17.6595 12.7648 17.6213C12.7006 17.5647 12.6181 17.5332 12.5325 17.5328C11.1498 17.6213 10.0436 17.6213 10.0436 17.6213C10.0436 17.6213 8.9374 17.6213 7.56572 17.5328C7.47974 17.5311 7.39646 17.5628 7.33342 17.6213C7.26705 17.6213 7.26704 17.6766 7.22279 17.7761C7.21903 17.824 7.21903 17.8721 7.22279 17.9199V18.2961C7.22279 19.2253 8.49491 19.9664 10.0657 19.9664C11.6365 19.9664 12.9197 19.2253 12.9197 18.2961L12.8754 17.9199Z" fill="#C1C1C1"/>
</svg>
