<svg width="25" height="25" viewBox="0 0 25 25" fill="none" xmlns="http://www.w3.org/2000/svg">
<rect x="6" y="6" width="15" height="15" fill="black"/>
<circle cx="12.7184" cy="13.7189" r="3.77604" fill="#7CF885"/>
<path fill-rule="evenodd" clip-rule="evenodd" d="M7.51042 4.60417C7.51042 3.16593 8.67634 2 10.1146 2H15.3229C16.7612 2 17.9271 3.16593 17.9271 4.60417H19.2292C22.1056 4.60417 24.4375 6.93602 24.4375 9.8125V17.625C24.4375 20.5015 22.1056 22.8333 19.2292 22.8333H6.20833C3.33185 22.8333 1 20.5015 1 17.625V9.8125C1 6.93602 3.33185 4.60417 6.20833 4.60417H7.51042ZM12.7188 18.9271C15.5952 18.9271 17.9271 16.5952 17.9271 13.7188C17.9271 10.8423 15.5952 8.51042 12.7188 8.51042C9.84227 8.51042 7.51042 10.8423 7.51042 13.7188C7.51042 16.5952 9.84227 18.9271 12.7188 18.9271ZM18.8385 10.3334C19.3419 10.3334 19.75 9.92534 19.75 9.42196C19.75 8.91857 19.3419 8.5105 18.8385 8.5105C18.3352 8.5105 17.9271 8.91857 17.9271 9.42196C17.9271 9.92534 18.3352 10.3334 18.8385 10.3334Z" fill="#7CF885"/>
</svg>
