<svg width="375" height="251" viewBox="0 0 375 251" fill="none" xmlns="http://www.w3.org/2000/svg">
<rect width="375" height="251" rx="32" fill="#EBEBEB"/>
<circle cx="187.5" cy="127.323" r="5.28646" fill="#AAAAAA"/>
<path fill-rule="evenodd" clip-rule="evenodd" d="M180.208 114.562C180.208 112.549 181.841 110.917 183.854 110.917H191.146C193.159 110.917 194.792 112.549 194.792 114.562L196.615 114.562C200.642 114.562 203.906 117.827 203.906 121.854V132.792C203.906 136.819 200.642 140.083 196.615 140.083H178.385C174.358 140.083 171.094 136.819 171.094 132.792V121.854C171.094 117.827 174.358 114.562 178.385 114.562L180.208 114.562ZM187.5 134.615C191.527 134.615 194.792 131.35 194.792 127.323C194.792 123.296 191.527 120.031 187.5 120.031C183.473 120.031 180.208 123.296 180.208 127.323C180.208 131.35 183.473 134.615 187.5 134.615ZM196.068 122.583C196.772 122.583 197.344 122.012 197.344 121.307C197.344 120.602 196.772 120.031 196.068 120.031C195.363 120.031 194.792 120.602 194.792 121.307C194.792 122.012 195.363 122.583 196.068 122.583Z" fill="#AAAAAA"/>
</svg>
