<svg width="72" height="72" viewBox="0 0 72 72" fill="none" xmlns="http://www.w3.org/2000/svg">
<g clip-path="url(#clip0_642_5026)">
<path d="M9.72199 18.294C11.602 16.98 14.436 17.232 16.124 18.626L14.188 15.812C12.63 13.59 13.188 11.186 15.412 9.62597C17.636 8.07197 23.938 12.25 23.938 12.25C22.366 10.006 22.66 7.16197 24.904 5.58797C25.9829 4.83414 27.3168 4.53941 28.6129 4.76854C29.9089 4.99768 31.061 5.73192 31.816 6.80997L52.656 36.25L50 62L27.834 53.916L8.49999 25.25C8.12298 24.7132 7.85551 24.1073 7.71287 23.467C7.57024 22.8268 7.55524 22.1647 7.66874 21.5186C7.78224 20.8725 8.022 20.2552 8.37432 19.7019C8.72664 19.1486 9.1846 18.6701 9.72199 18.294Z" fill="#EF9645"/>
<path d="M5.39 34.672C5.39 34.672 3.126 31.372 6.428 29.11C9.726 26.848 11.988 30.146 11.988 30.146L22.49 45.462C22.852 44.858 23.248 44.262 23.69 43.674L9.114 22.42C9.114 22.42 6.852 19.122 10.152 16.86C13.45 14.598 15.712 17.896 15.712 17.896L29.422 37.89C29.932 37.474 30.454 37.056 30.992 36.646L15.098 13.464C15.098 13.464 12.836 10.166 16.136 7.90398C19.434 5.64198 21.696 8.93998 21.696 8.93998L37.59 32.118C38.174 31.76 38.752 31.45 39.332 31.122L24.476 9.45798C24.476 9.45798 22.214 6.15998 25.512 3.89798C28.81 1.63598 31.072 4.93398 31.072 4.93398L46.78 27.842L49.168 31.326C39.272 38.114 38.33 50.884 43.984 59.13C45.114 60.78 46.764 59.65 46.764 59.65C39.978 49.752 42.05 38.63 51.948 31.844L49.03 17.24C49.03 17.24 47.94 13.392 51.786 12.3C55.634 11.21 56.726 15.058 56.726 15.058L60.096 25.066C61.432 29.034 62.854 32.988 64.736 36.728C70.05 47.288 66.876 60.412 56.856 67.286C45.926 74.78 30.984 71.994 23.488 61.066L5.39 34.672Z" fill="#FFDC5D"/>
<path d="M24 64.084C16 64.084 7.91598 56 7.91598 48C7.91598 46.894 7.10598 46 5.99998 46C4.89398 46 3.91599 46.894 3.91599 48C3.91599 60 12 68.084 24 68.084C25.106 68.084 26 67.106 26 66C26 64.894 25.106 64.084 24 64.084Z" fill="#5DADEC"/>
<path d="M14 68C8 68 4 64 4 58C4 57.4696 3.78929 56.9609 3.41421 56.5858C3.03914 56.2107 2.53043 56 2 56C1.46957 56 0.960859 56.2107 0.585786 56.5858C0.210714 56.9609 0 57.4696 0 58C0 66 6 72 14 72C14.5304 72 15.0391 71.7893 15.4142 71.4142C15.7893 71.0391 16 70.5304 16 70C16 69.4696 15.7893 68.9609 15.4142 68.5858C15.0391 68.2107 14.5304 68 14 68ZM48 4C47.4696 4 46.9609 4.21071 46.5858 4.58579C46.2107 4.96086 46 5.46957 46 6C46 6.53043 46.2107 7.03914 46.5858 7.41421C46.9609 7.78929 47.4696 8 48 8C56 8 64 15.178 64 24C64 24.5304 64.2107 25.0391 64.5858 25.4142C64.9609 25.7893 65.4696 26 66 26C66.5304 26 67.0391 25.7893 67.4142 25.4142C67.7893 25.0391 68 24.5304 68 24C68 12.972 60 4 48 4Z" fill="#5DADEC"/>
<path d="M58 0.0839844C56.896 0.0839844 56 0.895984 56 1.99998C56 3.10398 56.896 4.08398 58 4.08398C64 4.08398 67.916 8.53398 67.916 14C67.916 15.104 68.894 16 70 16C71.106 16 71.916 15.104 71.916 14C71.916 6.32598 66 0.0839844 58 0.0839844Z" fill="#5DADEC"/>
</g>
<defs>
<clipPath id="clip0_642_5026">
<rect width="72" height="72" fill="white"/>
</clipPath>
</defs>
</svg>
