<svg width="72" height="72" viewBox="0 0 72 72" fill="none" xmlns="http://www.w3.org/2000/svg">
<path d="M36 3C24.954 3 16 11.954 16 23V43H24V23C24 19.8174 25.2643 16.7652 27.5147 14.5147C29.7652 12.2643 32.8174 11 36 11C39.1826 11 42.2348 12.2643 44.4853 14.5147C46.7357 16.7652 48 19.8174 48 23V43H56V23C56 11.954 47.046 3 36 3Z" fill="#AAB8C2"/>
<path d="M62 61C62 63.1217 61.1571 65.1566 59.6569 66.6569C58.1566 68.1571 56.1217 69 54 69H18C15.8783 69 13.8434 68.1571 12.3431 66.6569C10.8429 65.1566 10 63.1217 10 61V37C10 34.8783 10.8429 32.8434 12.3431 31.3431C13.8434 29.8429 15.8783 29 18 29H54C56.1217 29 58.1566 29.8429 59.6569 31.3431C61.1571 32.8434 62 34.8783 62 37V61Z" fill="#FFAC33"/>
</svg>
