<svg width="4" height="16" viewBox="0 0 4 16" fill="none" xmlns="http://www.w3.org/2000/svg">
<path d="M1.99911 -0.000124522C2.31562 -0.000270686 2.62507 0.0898532 2.8883 0.258846C3.15153 0.427839 3.35672 0.668108 3.47792 0.949256C3.59911 1.2304 3.63086 1.5398 3.56915 1.8383C3.50744 2.1368 3.35504 2.411 3.13123 2.62621C2.90743 2.84141 2.62227 2.98795 2.31183 3.04729C2.00139 3.10663 1.67963 3.0761 1.38724 2.95956C1.09485 2.84303 0.844976 2.64572 0.669227 2.39261C0.493478 2.1395 0.39975 1.84195 0.399902 1.5376C0.399902 1.12977 0.56839 0.738646 0.8683 0.450266C1.16821 0.161886 1.57497 -0.000124504 1.99911 -0.000124522Z" fill="#292929"/>
<path d="M1.99911 12.9229C2.31562 12.9228 2.62507 13.0129 2.8883 13.1819C3.15153 13.3509 3.35672 13.5912 3.47792 13.8723C3.59911 14.1535 3.63086 14.4629 3.56915 14.7614C3.50744 15.0599 3.35504 15.3341 3.13123 15.5493C2.90743 15.7645 2.62227 15.911 2.31183 15.9704C2.00139 16.0297 1.67963 15.9992 1.38724 15.8826C1.09485 15.7661 0.844976 15.5688 0.669227 15.3157C0.493478 15.0626 0.39975 14.765 0.399902 14.4607C0.399902 14.0528 0.56839 13.6617 0.8683 13.3733C1.16821 13.085 1.57497 12.9229 1.99911 12.9229Z" fill="#292929"/>
<path d="M1.99911 6.42294C2.31562 6.42279 2.62507 6.51292 2.8883 6.68191C3.15153 6.8509 3.35672 7.09117 3.47792 7.37232C3.59911 7.65347 3.63086 7.96287 3.56915 8.26137C3.50744 8.55987 3.35504 8.83407 3.13123 9.04927C2.90743 9.26447 2.62227 9.41101 2.31183 9.47035C2.00139 9.52969 1.67963 9.49916 1.38724 9.38263C1.09485 9.26609 0.844976 9.06879 0.669227 8.81568C0.493478 8.56256 0.39975 8.26501 0.399902 7.96067C0.399902 7.55284 0.56839 7.16171 0.8683 6.87333C1.16821 6.58495 1.57497 6.42294 1.99911 6.42294Z" fill="#292929"/>
</svg>
