<svg width="24" height="24" viewBox="0 0 24 24" fill="none" xmlns="http://www.w3.org/2000/svg">
<path d="M3.85073 16.0748L7.92532 20.1494L19.2475 8.8311L15.169 4.75261L3.85073 16.0748ZM2.01681 21.4281C1.92705 21.7911 2.20893 22.073 2.57189 21.9832L7.92532 20.1494L3.85073 16.0748L2.01681 21.4281ZM21.0585 2.94168C19.2514 1.13075 17.4366 2.48895 17.4366 2.48895C17.14 2.71532 16.0784 3.84715 16.0784 3.84715L20.153 7.92173C20.153 7.92173 21.2809 6.86016 21.5112 6.56354C21.5112 6.56354 22.8694 4.75651 21.0585 2.94168Z" fill="#292929"/>
<path d="M2.3999 20.3999H21.1999C21.6417 20.3999 21.9999 20.7581 21.9999 21.1999C21.9999 21.6417 21.6417 21.9999 21.1999 21.9999H2.3999V20.3999Z" fill="#292929"/>
</svg>
