<svg width="74" height="75" viewBox="0 0 74 75" fill="none" xmlns="http://www.w3.org/2000/svg">
<g clip-path="url(#clip0_1667_6203)">
<path d="M36.4878 74.2609C33.7762 74.1729 31.1868 73.1124 29.1925 71.2731C27.1982 69.4339 25.932 66.9386 25.6253 64.243C25.5666 63.8649 25.583 63.479 25.6735 63.1073C25.764 62.7355 25.9268 62.3853 26.1527 62.0765C26.6088 61.4528 27.294 61.0359 28.0575 60.9174C28.8211 60.7989 36.6041 60.9174 36.6041 60.9174V74.2609H36.4878Z" fill="#AAAAAA"/>
<path d="M36.667 74.2617H36.5469V60.937H45.101C45.8605 61.0535 46.5427 61.467 46.9974 62.0864C47.4521 62.7058 47.6421 63.4805 47.5258 64.24C47.2185 66.934 45.9532 69.4279 43.9606 71.2669C41.968 73.1058 39.3808 74.1674 36.6708 74.258" fill="#AAAAAA"/>
<path d="M37.1304 63.7657H2.91268C2.13984 63.7647 1.399 63.457 0.852875 62.9102C0.30675 62.3634 -6.4005e-07 61.6221 0 60.8493V56.0073C0.335619 54.0437 1.08305 52.1733 2.19316 50.5191C3.30326 48.865 4.75091 47.4645 6.44092 46.4098C9.61259 44.1577 11.6957 34.5564 12.1574 28.472C12.7617 18.1575 16.016 10.4067 21.77 5.47089C26.1963 1.72008 31.8731 -0.225773 37.6696 0.0208806V63.7657H37.1304Z" fill="#DBDBDB"/>
<path d="M71.0722 63.7662L36.3115 63.7624V2.95692V0.0213396C42.1119 -0.228179 47.7932 1.71785 52.2224 5.47135C57.9614 10.4071 61.1969 18.158 61.8312 28.5063C62.2741 34.5568 64.3723 44.1581 67.6191 46.4628C69.2865 47.5064 70.7161 48.8887 71.8153 50.52C72.9145 52.1514 73.6588 53.9954 73.9999 55.9327V60.8497C73.9989 61.6219 73.6917 62.3622 73.1457 62.9082C72.5997 63.4542 71.8594 63.7614 71.0872 63.7624" fill="#DBDBDB"/>
</g>
<defs>
<clipPath id="clip0_1667_6203">
<rect width="74" height="75" fill="white"/>
</clipPath>
</defs>
</svg>
