<svg width="24" height="24" viewBox="0 0 24 24" fill="none" xmlns="http://www.w3.org/2000/svg">
<g clip-path="url(#clip0_1264_7517)">
<path d="M15.25 3.86V7.12" stroke="#292929" stroke-width="1.6" stroke-linecap="round" stroke-linejoin="round"/>
<path d="M8.75 3.86V7.12" stroke="#292929" stroke-width="1.6" stroke-linecap="round" stroke-linejoin="round"/>
<path d="M3.8799 18.51C3.87859 18.8286 3.94021 19.1444 4.06124 19.4392C4.18227 19.7339 4.36032 20.0019 4.58516 20.2277C4.81001 20.4534 5.07725 20.6326 5.37151 20.7548C5.66577 20.8771 5.98127 20.94 6.29992 20.94H17.7299C18.3744 20.94 18.9925 20.684 19.4482 20.2283C19.9039 19.7726 20.1599 19.1545 20.1599 18.51V11.17H3.8799V18.51Z" fill="#292929"/>
<path d="M20.1199 7.11999C20.1199 6.47551 19.8639 5.85744 19.4082 5.40173C18.9525 4.94601 18.3344 4.68999 17.6899 4.68999H6.29992C5.98127 4.68999 5.66577 4.75293 5.37151 4.87518C5.07725 4.99742 4.81001 5.17656 4.58516 5.40234C4.36032 5.62811 4.18227 5.89609 4.06124 6.19085C3.94021 6.48561 3.87859 6.80135 3.8799 7.11999V9.57H20.1199V7.11999Z" fill="#292929"/>
</g>
<defs>
<clipPath id="clip0_1264_7517">
<rect width="18" height="18" fill="white" transform="translate(3 3)"/>
</clipPath>
</defs>
</svg>
