<svg width="20" height="19" viewBox="0 0 20 19" fill="none" xmlns="http://www.w3.org/2000/svg">
<path d="M17.316 18.0058H2.682C1.97067 18.0048 1.2888 17.7206 0.786003 17.2156C0.283202 16.7106 0.000528871 16.026 0 15.3122V2.80275C0.00105802 2.0892 0.283965 1.40518 0.786708 0.900627C1.28945 0.396072 1.97101 0.112146 2.682 0.111084H7.255C7.39561 0.110991 7.53405 0.145866 7.65795 0.212592C7.78185 0.279318 7.88734 0.375815 7.965 0.493457L9.542 2.86497H17.316C18.0273 2.8655 18.7094 3.14919 19.2126 3.6538C19.7158 4.15842 19.9989 4.84274 20 5.55663V15.3122C19.9992 16.0263 19.7162 16.711 19.213 17.216C18.7098 17.721 18.0276 18.005 17.316 18.0058Z" fill="#C1C1C1"/>
</svg>
