<svg width="20" height="20" viewBox="0 0 20 20" fill="none" xmlns="http://www.w3.org/2000/svg">
<path d="M1.85073 14.0748L5.92532 18.1494L17.2475 6.8311L13.169 2.75261L1.85073 14.0748ZM0.0168128 19.4281C-0.0729531 19.7911 0.208927 20.073 0.571893 19.9832L5.92532 18.1494L1.85073 14.0748L0.0168128 19.4281ZM19.0585 0.941683C17.2514 -0.869246 15.4366 0.488951 15.4366 0.488951C15.14 0.715317 14.0784 1.84715 14.0784 1.84715L18.153 5.92173C18.153 5.92173 19.2809 4.86016 19.5112 4.56354C19.5112 4.56354 20.8694 2.75651 19.0585 0.941683Z" fill="#C1C1C1"/>
<path d="M0.400024 18.3999H19.2C19.6419 18.3999 20 18.7581 20 19.1999C20 19.6417 19.6419 19.9999 19.2 19.9999H0.400024V18.3999Z" fill="#C1C1C1"/>
</svg>
