<svg width="13" height="4" viewBox="0 0 13 4" fill="none" xmlns="http://www.w3.org/2000/svg">
<path d="M1.83806e-07 1.84894C-0.000118559 1.60977 0.0731067 1.37594 0.210413 1.17703C0.347719 0.978115 0.542936 0.823063 0.771368 0.731483C0.9998 0.639903 1.25118 0.615912 1.49371 0.662544C1.73625 0.709175 1.95903 0.824334 2.13388 0.993453C2.30873 1.16257 2.4278 1.37805 2.47601 1.61263C2.52422 1.84721 2.49942 2.09035 2.40473 2.3113C2.31005 2.53224 2.14974 2.72105 1.94409 2.85386C1.73843 2.98666 1.49668 3.05749 1.2494 3.05737C0.918038 3.05737 0.600248 2.93006 0.365941 2.70343C0.131633 2.4768 1.9829e-07 2.16943 1.83806e-07 1.84894Z" fill="#AAAAAA"/>
<path d="M10 1.84894C9.99988 1.60977 10.0731 1.37594 10.2104 1.17703C10.3477 0.978115 10.5429 0.823063 10.7714 0.731483C10.9998 0.639903 11.2512 0.615912 11.4937 0.662544C11.7362 0.709175 11.959 0.824334 12.1339 0.993453C12.3087 1.16257 12.4278 1.37805 12.476 1.61263C12.5242 1.84721 12.4994 2.09035 12.4047 2.3113C12.31 2.53224 12.1497 2.72105 11.9441 2.85386C11.7384 2.98666 11.4967 3.05749 11.2494 3.05737C10.918 3.05737 10.6002 2.93006 10.3659 2.70343C10.1316 2.4768 10 2.16943 10 1.84894Z" fill="#AAAAAA"/>
<path d="M5 1.84894C4.99988 1.60977 5.07311 1.37594 5.21041 1.17703C5.34772 0.978115 5.54294 0.823063 5.77137 0.731483C5.9998 0.639903 6.25118 0.615912 6.49371 0.662544C6.73625 0.709175 6.95903 0.824334 7.13388 0.993453C7.30873 1.16257 7.4278 1.37805 7.47601 1.61263C7.52422 1.84721 7.49942 2.09035 7.40473 2.3113C7.31005 2.53224 7.14974 2.72105 6.94409 2.85386C6.73843 2.98666 6.49668 3.05749 6.2494 3.05737C5.91804 3.05737 5.60025 2.93006 5.36594 2.70343C5.13163 2.4768 5 2.16943 5 1.84894Z" fill="#AAAAAA"/>
</svg>
