<svg width="25" height="25" viewBox="0 0 25 25" fill="none" xmlns="http://www.w3.org/2000/svg">
<path d="M8.75586 12.4895C8.75599 12.7586 8.67361 13.0216 8.51915 13.2454C8.36468 13.4692 8.14506 13.6436 7.88807 13.7466C7.63108 13.8497 7.34828 13.8766 7.07543 13.8242C6.80258 13.7717 6.55195 13.6422 6.35524 13.4519C6.15853 13.2617 6.02459 13.0192 5.97035 12.7553C5.91611 12.4914 5.94401 12.2179 6.05053 11.9693C6.15705 11.7208 6.3374 11.5084 6.56876 11.359C6.80012 11.2096 7.0721 11.1299 7.35029 11.13C7.72307 11.13 8.08058 11.2732 8.34418 11.5282C8.60777 11.7831 8.75586 12.1289 8.75586 12.4895Z" fill="#AAAAAA"/>
<path d="M13.9434 12.4895C13.9435 12.7586 13.8611 13.0217 13.7066 13.2454C13.5522 13.4692 13.3326 13.6436 13.0756 13.7467C12.8186 13.8497 12.5358 13.8767 12.2629 13.8242C11.9901 13.7718 11.7394 13.6422 11.5427 13.4519C11.346 13.2617 11.2121 13.0193 11.1578 12.7554C11.1036 12.4915 11.1315 12.2179 11.238 11.9694C11.3446 11.7208 11.5249 11.5084 11.7563 11.359C11.9876 11.2096 12.2596 11.1299 12.5378 11.13C12.9106 11.13 13.2681 11.2733 13.5317 11.5282C13.7953 11.7832 13.9434 12.129 13.9434 12.4895Z" fill="#AAAAAA"/>
<path d="M19.1309 12.4895C19.131 12.7586 19.0486 13.0216 18.8941 13.2454C18.7397 13.4692 18.5201 13.6436 18.2631 13.7466C18.0061 13.8497 17.7233 13.8766 17.4504 13.8242C17.1776 13.7717 16.9269 13.6422 16.7302 13.4519C16.5335 13.2617 16.3996 13.0192 16.3453 12.7553C16.2911 12.4914 16.319 12.2179 16.4255 11.9693C16.5321 11.7208 16.7124 11.5084 16.9438 11.359C17.1751 11.2096 17.4471 11.1299 17.7253 11.13C18.0981 11.13 18.4556 11.2732 18.7192 11.5282C18.9828 11.7831 19.1309 12.1289 19.1309 12.4895Z" fill="#AAAAAA"/>
</svg>
