<svg width="24" height="24" viewBox="0 0 24 24" fill="none" xmlns="http://www.w3.org/2000/svg">
<path d="M5.61336 19C5.4924 19.0003 5.37406 18.9648 5.2733 18.8978C5.17254 18.8309 5.09388 18.7356 5.04726 18.624C5.00064 18.5124 4.98816 18.3894 5.01139 18.2707C5.03462 18.152 5.09252 18.0429 5.17777 17.957L17.9481 5.1885C18.0044 5.1297 18.0719 5.08274 18.1467 5.05038C18.2214 5.01802 18.3018 5.0009 18.3833 5.00003C18.4647 4.99917 18.5455 5.01457 18.6209 5.04533C18.6963 5.07609 18.7648 5.1216 18.8224 5.17919C18.88 5.23677 18.9255 5.30527 18.9562 5.38067C18.987 5.45608 19.0024 5.53686 19.0015 5.61829C19.0007 5.69972 18.9836 5.78016 18.9512 5.85489C18.9188 5.92962 18.8719 5.99714 18.8131 6.05348L6.04541 18.8229C5.98861 18.8794 5.9212 18.9242 5.84705 18.9546C5.77291 18.985 5.69349 19.0004 5.61336 19Z" fill="#070203"/>
<path d="M18.3809 19C18.3008 19.0004 18.2214 18.985 18.1472 18.9546C18.0731 18.9242 18.0057 18.8795 17.9489 18.8229L5.18031 6.0544C5.06548 5.93957 5.00098 5.78384 5.00098 5.62146C5.00098 5.45908 5.06548 5.30334 5.18031 5.18852C5.29513 5.0737 5.45086 5.00919 5.61324 5.00919C5.77563 5.00919 5.93136 5.0737 6.04618 5.18852L18.8147 17.9571C18.8999 18.0428 18.9577 18.1518 18.981 18.2703C19.0043 18.3889 18.992 18.5117 18.9456 18.6232C18.8992 18.7347 18.8208 18.8301 18.7203 18.8971C18.6198 18.9642 18.5017 19 18.3809 19Z" fill="#070203"/>
</svg>
