<svg width="14" height="14" viewBox="0 0 14 14" fill="none" xmlns="http://www.w3.org/2000/svg">
<g clip-path="url(#clip0_423_18111)">
<path d="M0.612158 14C0.491121 14.0003 0.372707 13.9647 0.271883 13.8978C0.171058 13.8308 0.0923488 13.7354 0.0457016 13.6237C-0.000945587 13.5121 -0.0134366 13.3891 0.00980726 13.2703C0.0330511 13.1515 0.0909864 13.0423 0.176291 12.9564L12.9546 0.179825C13.011 0.12099 13.0786 0.0740048 13.1533 0.0416225C13.2281 0.00924031 13.3086 -0.00788673 13.3901 -0.00875436C13.4716 -0.00962199 13.5524 0.00578725 13.6279 0.0365699C13.7033 0.0673525 13.7719 0.112889 13.8295 0.170509C13.8871 0.228129 13.9326 0.296674 13.9634 0.372123C13.9942 0.447573 14.0096 0.528408 14.0087 0.609891C14.0079 0.691374 13.9907 0.771863 13.9584 0.84664C13.926 0.921417 13.879 0.988976 13.8202 1.04536L1.04448 13.8228C0.987643 13.8794 0.920191 13.9241 0.845999 13.9545C0.771807 13.9849 0.692338 14.0004 0.612158 14Z" fill="#070203"/>
<path d="M13.3878 14C13.3077 14.0004 13.2282 13.9849 13.154 13.9545C13.0798 13.9241 13.0124 13.8793 12.9555 13.8228L0.178953 1.04622C0.0640586 0.931331 -0.000488282 0.775501 -0.000488281 0.613016C-0.00048828 0.450531 0.0640586 0.294701 0.178953 0.179807C0.293847 0.0649131 0.449677 0.000366212 0.612162 0.000366211C0.774646 0.00036621 0.930476 0.0649131 1.04537 0.179807L13.8219 12.9564C13.9071 13.0421 13.965 13.1512 13.9883 13.2698C14.0116 13.3884 13.9993 13.5113 13.9529 13.6229C13.9064 13.7345 13.828 13.8299 13.7274 13.897C13.6269 13.9641 13.5087 13.9999 13.3878 14Z" fill="#070203"/>
</g>
<defs>
<clipPath id="clip0_423_18111">
<rect width="14" height="14" fill="white"/>
</clipPath>
</defs>
</svg>
