<svg width="24" height="24" viewBox="0 0 24 24" fill="none" xmlns="http://www.w3.org/2000/svg">
<path d="M6.61336 19C6.4924 19.0003 6.37406 18.9648 6.2733 18.8978C6.17254 18.8309 6.09388 18.7356 6.04726 18.624C6.00064 18.5124 5.98816 18.3894 6.01139 18.2707C6.03462 18.152 6.09252 18.0429 6.17777 17.957L18.9481 5.1885C19.0044 5.1297 19.0719 5.08274 19.1467 5.05038C19.2214 5.01802 19.3018 5.0009 19.3833 5.00003C19.4647 4.99917 19.5455 5.01457 19.6209 5.04533C19.6963 5.07609 19.7648 5.1216 19.8224 5.17919C19.88 5.23677 19.9255 5.30527 19.9562 5.38067C19.987 5.45608 20.0024 5.53686 20.0015 5.61829C20.0007 5.69972 19.9836 5.78016 19.9512 5.85489C19.9188 5.92962 19.8719 5.99714 19.8131 6.05348L7.04541 18.8229C6.98861 18.8794 6.9212 18.9242 6.84705 18.9546C6.77291 18.985 6.69349 19.0004 6.61336 19Z" fill="#292929"/>
<path d="M19.3809 18.9996C19.3008 19 19.2214 18.9846 19.1472 18.9542C19.0731 18.9238 19.0057 18.8791 18.9489 18.8225L6.18031 6.05399C6.06548 5.93917 6.00098 5.78344 6.00098 5.62105C6.00098 5.45867 6.06548 5.30294 6.18031 5.18812C6.29513 5.0733 6.45086 5.00879 6.61324 5.00879C6.77563 5.00879 6.93136 5.0733 7.04618 5.18812L19.8147 17.9567C19.8999 18.0424 19.9577 18.1514 19.981 18.2699C20.0043 18.3885 19.992 18.5112 19.9456 18.6228C19.8992 18.7343 19.8208 18.8296 19.7203 18.8967C19.6198 18.9638 19.5017 18.9996 19.3809 18.9996Z" fill="#292929"/>
</svg>
