<svg width="137" height="18" viewBox="0 0 137 18" fill="none" xmlns="http://www.w3.org/2000/svg">
<path d="M5.36072 17.8383L0 1.66367H3.11938L7.90244 16.2901H6.3543L11.3222 1.66367H14.095L18.9243 16.2901H17.4223L22.3209 1.66367H25.1861L19.8254 17.8383H16.6367L12.2234 4.64442H13.0552L8.57253 17.8383H5.36072Z" fill="black"/>
<path d="M27.4688 17.8383V5.49936H30.3571V17.8383H27.4688ZM28.9245 3.46598C28.3854 3.46598 27.9386 3.29653 27.5843 2.95764C27.2454 2.61874 27.076 2.21053 27.076 1.73299C27.076 1.24005 27.2454 0.831835 27.5843 0.508343C27.9386 0.169447 28.3854 0 28.9245 0C29.4637 0 29.9027 0.161745 30.2416 0.485237C30.5959 0.793325 30.773 1.18614 30.773 1.66367C30.773 2.17201 30.6036 2.60334 30.2647 2.95764C29.9258 3.29653 29.4791 3.46598 28.9245 3.46598Z" fill="black"/>
<path d="M37.9606 18C36.9285 18 35.935 17.8691 34.9799 17.6072C34.0402 17.3299 33.2931 16.9987 32.7386 16.6136L33.8477 14.4185C34.4022 14.7728 35.0646 15.0655 35.8348 15.2965C36.605 15.5276 37.3753 15.6431 38.1455 15.6431C39.0543 15.6431 39.709 15.5199 40.1095 15.2734C40.5255 15.027 40.7334 14.6958 40.7334 14.2798C40.7334 13.9409 40.5948 13.6868 40.3175 13.5173C40.0402 13.3325 39.6782 13.1938 39.2315 13.1014C38.7848 13.009 38.2841 12.9243 37.7296 12.8472C37.1904 12.7702 36.6436 12.6701 36.089 12.5469C35.5498 12.4082 35.0569 12.2157 34.6102 11.9692C34.1635 11.7073 33.8015 11.3607 33.5242 10.9294C33.2469 10.4981 33.1083 9.92811 33.1083 9.21951C33.1083 8.43389 33.3316 7.7561 33.7783 7.18614C34.2251 6.60077 34.8489 6.15404 35.65 5.84596C36.4664 5.52246 37.4292 5.36072 38.5383 5.36072C39.3701 5.36072 40.2097 5.45315 41.0569 5.638C41.9041 5.82285 42.605 6.08472 43.1596 6.42362L42.0505 8.61874C41.4651 8.26444 40.8721 8.02567 40.2713 7.90244C39.6859 7.7638 39.1006 7.69448 38.5152 7.69448C37.6371 7.69448 36.9825 7.82542 36.5511 8.08729C36.1352 8.34917 35.9273 8.68036 35.9273 9.08087C35.9273 9.45058 36.0659 9.72786 36.3432 9.91271C36.6205 10.0976 36.9825 10.2439 37.4292 10.3517C37.8759 10.4596 38.3688 10.552 38.908 10.629C39.4626 10.6906 40.0094 10.7908 40.5486 10.9294C41.0877 11.068 41.5807 11.2606 42.0274 11.5071C42.4895 11.7381 42.8592 12.0693 43.1365 12.5006C43.4138 12.932 43.5524 13.4942 43.5524 14.1874C43.5524 14.9576 43.3214 15.6277 42.8592 16.1977C42.4125 16.7677 41.7732 17.2144 40.9414 17.5379C40.1095 17.846 39.116 18 37.9606 18Z" fill="black"/>
<path d="M53.0411 5.36072C54.027 5.36072 54.905 5.55327 55.6752 5.93838C56.4609 6.32349 57.077 6.91656 57.5238 7.71759C57.9705 8.50321 58.1938 9.5199 58.1938 10.7677V17.8383H55.3055V11.1374C55.3055 10.0436 55.0437 9.22721 54.5199 8.68806C54.0116 8.14891 53.2953 7.87933 52.371 7.87933C51.6932 7.87933 51.0924 8.01797 50.5687 8.29525C50.0449 8.57253 49.6367 8.98845 49.344 9.543C49.0668 10.0822 48.9281 10.7677 48.9281 11.5995V17.8383H46.0398V0.693196H48.9281V8.8267L48.3042 7.81001C48.7356 7.02439 49.3594 6.42362 50.1759 6.0077C51.0077 5.57638 51.9628 5.36072 53.0411 5.36072Z" fill="black"/>
<path d="M68.521 17.8383V1.66367H76.1C78.0409 1.66367 79.5197 2.04878 80.5364 2.819C81.5531 3.57381 82.0615 4.5905 82.0615 5.86906C82.0615 6.73171 81.8612 7.47112 81.4607 8.08729C81.0602 8.68806 80.521 9.1579 79.8432 9.49679C79.1809 9.82028 78.4568 9.98203 77.6712 9.98203L78.0871 9.15019C78.996 9.15019 79.8124 9.31964 80.5364 9.65854C81.2604 9.98203 81.8304 10.4596 82.2463 11.0911C82.6776 11.7227 82.8933 12.5083 82.8933 13.448C82.8933 14.8344 82.3619 15.9127 81.299 16.6829C80.2361 17.4531 78.6571 17.8383 76.5621 17.8383H68.521ZM71.5249 15.4814H76.3773C77.5018 15.4814 78.3644 15.2965 78.9652 14.9268C79.566 14.5571 79.8663 13.9641 79.8663 13.1476C79.8663 12.3466 79.566 11.7612 78.9652 11.3915C78.3644 11.0064 77.5018 10.8139 76.3773 10.8139H71.2938V8.4801H75.7765C76.824 8.4801 77.625 8.29525 78.1796 7.92555C78.7495 7.55584 79.0345 7.00128 79.0345 6.26187C79.0345 5.50706 78.7495 4.9448 78.1796 4.5751C77.625 4.20539 76.824 4.02054 75.7765 4.02054H71.5249V15.4814Z" fill="black"/>
<path d="M91.3675 18C90.1043 18 88.9798 17.7304 87.9939 17.1913C87.008 16.6367 86.2301 15.8819 85.6601 14.9268C85.0902 13.9718 84.8052 12.8858 84.8052 11.6688C84.8052 10.4365 85.0902 9.35045 85.6601 8.41078C86.2301 7.45571 87.008 6.7086 87.9939 6.16945C88.9798 5.6303 90.1043 5.36072 91.3675 5.36072C92.646 5.36072 93.7782 5.6303 94.7641 6.16945C95.7654 6.7086 96.5433 7.44801 97.0979 8.38768C97.6678 9.32734 97.9528 10.4211 97.9528 11.6688C97.9528 12.8858 97.6678 13.9718 97.0979 14.9268C96.5433 15.8819 95.7654 16.6367 94.7641 17.1913C93.7782 17.7304 92.646 18 91.3675 18ZM91.3675 15.5276C92.0761 15.5276 92.7076 15.3736 93.2622 15.0655C93.8167 14.7574 94.2481 14.3107 94.5562 13.7253C94.8796 13.1399 95.0414 12.4544 95.0414 11.6688C95.0414 10.8678 94.8796 10.1823 94.5562 9.61232C94.2481 9.02696 93.8167 8.58023 93.2622 8.27214C92.7076 7.96406 92.0838 7.81001 91.3906 7.81001C90.682 7.81001 90.0504 7.96406 89.4958 8.27214C88.9567 8.58023 88.5253 9.02696 88.2019 9.61232C87.8784 10.1823 87.7166 10.8678 87.7166 11.6688C87.7166 12.4544 87.8784 13.1399 88.2019 13.7253C88.5253 14.3107 88.9567 14.7574 89.4958 15.0655C90.0504 15.3736 90.6743 15.5276 91.3675 15.5276Z" fill="black"/>
<path d="M108.159 17.8383V15.3427L107.997 14.8113V10.4442C107.997 9.59692 107.743 8.94223 107.235 8.4801C106.726 8.00257 105.956 7.7638 104.924 7.7638C104.231 7.7638 103.545 7.87163 102.867 8.08729C102.205 8.30295 101.643 8.60334 101.181 8.98845L100.048 6.88575C100.711 6.37741 101.496 6 102.405 5.75353C103.33 5.49166 104.285 5.36072 105.271 5.36072C107.057 5.36072 108.436 5.79204 109.407 6.65469C110.393 7.50193 110.885 8.819 110.885 10.6059V17.8383H108.159ZM104.277 18C103.353 18 102.544 17.846 101.851 17.5379C101.158 17.2144 100.618 16.7754 100.233 16.2208C99.8636 15.6508 99.6788 15.0116 99.6788 14.303C99.6788 13.6098 99.8405 12.9859 100.164 12.4313C100.503 11.8768 101.05 11.4377 101.805 11.1142C102.559 10.7908 103.561 10.629 104.808 10.629H108.39V12.5469H105.016C104.031 12.5469 103.368 12.7086 103.029 13.0321C102.69 13.3402 102.521 13.7253 102.521 14.1874C102.521 14.7112 102.729 15.1271 103.145 15.4352C103.561 15.7433 104.138 15.8973 104.878 15.8973C105.586 15.8973 106.218 15.7356 106.772 15.4121C107.342 15.0886 107.751 14.611 107.997 13.9795L108.482 15.7125C108.205 16.4365 107.704 16.9987 106.98 17.3992C106.272 17.7997 105.371 18 104.277 18Z" fill="black"/>
<path d="M114.592 17.8383V5.49936H117.342V8.89602L117.018 7.90244C117.388 7.0706 117.966 6.43902 118.751 6.0077C119.552 5.57638 120.546 5.36072 121.732 5.36072V8.1104C121.609 8.07959 121.493 8.06418 121.386 8.06418C121.278 8.04878 121.17 8.04108 121.062 8.04108C119.968 8.04108 119.098 8.36457 118.451 9.01155C117.804 9.64313 117.481 10.5905 117.481 11.8537V17.8383H114.592Z" fill="black"/>
<path d="M129.292 18C128.105 18 127.035 17.7381 126.08 17.2144C125.14 16.6752 124.401 15.9358 123.862 14.9961C123.322 14.0565 123.053 12.9474 123.053 11.6688C123.053 10.3902 123.322 9.28113 123.862 8.34146C124.401 7.4018 125.14 6.67009 126.08 6.14634C127.035 5.62259 128.105 5.36072 129.292 5.36072C130.324 5.36072 131.248 5.59178 132.064 6.05392C132.881 6.50064 133.528 7.18614 134.005 8.1104C134.483 9.03466 134.722 10.2208 134.722 11.6688C134.722 13.1014 134.491 14.2875 134.028 15.2272C133.566 16.1515 132.927 16.8447 132.111 17.3068C131.294 17.7689 130.355 18 129.292 18ZM129.638 15.5276C130.331 15.5276 130.948 15.3736 131.487 15.0655C132.041 14.7574 132.48 14.3107 132.804 13.7253C133.143 13.1399 133.312 12.4544 133.312 11.6688C133.312 10.8678 133.143 10.1823 132.804 9.61232C132.48 9.02696 132.041 8.58023 131.487 8.27214C130.948 7.96406 130.331 7.81001 129.638 7.81001C128.945 7.81001 128.321 7.96406 127.767 8.27214C127.227 8.58023 126.788 9.02696 126.45 9.61232C126.126 10.1823 125.964 10.8678 125.964 11.6688C125.964 12.4544 126.126 13.1399 126.45 13.7253C126.788 14.3107 127.227 14.7574 127.767 15.0655C128.321 15.3736 128.945 15.5276 129.638 15.5276ZM133.381 17.8383V14.9268L133.497 11.6457L133.266 8.36457V0.693196H136.131V17.8383H133.381Z" fill="black"/>
</svg>
