<svg width="22" height="21" viewBox="0 0 22 21" fill="none" xmlns="http://www.w3.org/2000/svg">
<g clip-path="url(#clip0_423_18639)">
<path d="M7.8 20.73C7.44399 20.73 7.09599 20.6244 6.79998 20.4266C6.50397 20.2289 6.27326 19.9477 6.13702 19.6188C6.00078 19.2899 5.96513 18.928 6.03459 18.5788C6.10404 18.2297 6.27548 17.909 6.52722 17.6572C6.77895 17.4055 7.09968 17.234 7.44885 17.1646C7.79801 17.0951 8.15993 17.1308 8.48884 17.267C8.81775 17.4033 9.09887 17.634 9.29666 17.93C9.49444 18.226 9.6 18.574 9.6 18.93C9.6 19.4074 9.41036 19.8652 9.07279 20.2028C8.73523 20.5404 8.27739 20.73 7.8 20.73Z" fill="#292929"/>
<path d="M17.8 20.73C17.444 20.73 17.096 20.6244 16.8 20.4266C16.504 20.2289 16.2733 19.9477 16.137 19.6188C16.0008 19.2899 15.9651 18.928 16.0346 18.5788C16.104 18.2297 16.2755 17.909 16.5272 17.6572C16.779 17.4055 17.0997 17.234 17.4488 17.1646C17.798 17.0951 18.1599 17.1308 18.4888 17.267C18.8177 17.4033 19.0989 17.634 19.2967 17.93C19.4944 18.226 19.6 18.574 19.6 18.93C19.6 19.1664 19.5535 19.4004 19.463 19.6188C19.3725 19.8372 19.2399 20.0356 19.0728 20.2028C18.9056 20.3699 18.7072 20.5025 18.4888 20.593C18.2705 20.6834 18.0364 20.73 17.8 20.73Z" fill="#292929"/>
<path d="M8.65996 15.2501C8.05581 15.2459 7.47152 15.0339 7.00531 14.6496C6.5391 14.2654 6.2194 13.7323 6.09996 13.1401L4.53996 5.54006L3.75996 1.65006H0.759964C0.547791 1.65006 0.344304 1.56577 0.194275 1.41575C0.0442458 1.26572 -0.0400391 1.06223 -0.0400391 0.85006C-0.0400391 0.637887 0.0442458 0.434404 0.194275 0.284375C0.344304 0.134346 0.547791 0.0500609 0.759964 0.0500609H4.40996C4.5942 0.049042 4.773 0.112452 4.91544 0.229321C5.05787 0.34619 5.15498 0.509167 5.18996 0.69006L5.97997 4.60006H20.81C20.9268 4.6003 21.042 4.62644 21.1475 4.67658C21.253 4.72673 21.346 4.79964 21.42 4.89006C21.4971 4.97965 21.5525 5.08578 21.582 5.20023C21.6114 5.31468 21.6142 5.43438 21.59 5.55006L20.14 13.2001C20.0071 13.788 19.6763 14.3124 19.203 14.6855C18.7297 15.0587 18.1426 15.258 17.54 15.2501H8.64996H8.65996Z" fill="#292929"/>
</g>
<defs>
<clipPath id="clip0_423_18639">
<rect width="21.64" height="20.73" fill="white"/>
</clipPath>
</defs>
</svg>
