<svg width="80" height="80" viewBox="0 0 80 80" fill="none" xmlns="http://www.w3.org/2000/svg">
<path d="M18.3347 64.66V66.19C18.3347 67.72 17.8347 69.31 16.5047 70.11L17.2747 71.03C18.0747 70.54 18.6247 69.7 18.9347 68.7C19.2347 69.6 19.7247 70.33 20.5047 70.77L21.2147 69.79C19.9747 69.11 19.5447 67.64 19.5447 66.1V64.66H18.3347ZM21.2347 72.43H22.3947V68.37H23.1747V72.84H24.3547V63.87H23.1747V67.37H22.3947V64.02H21.2347V72.43ZM28.3996 64.08V65.02H29.5796V66.2H28.4796V67.14H31.1296V67.7H27.6896V68.67H35.8096V67.7H32.3596V67.14H35.0096V66.2H33.9096V65.02H35.0796V64.08H28.3996ZM28.6296 70.04H33.5896V70.52H28.6496V72.78H35.0496V71.86H29.8696V71.35H34.8196V69.16H28.6296V70.04ZM30.8096 66.2V65.02H32.6796V66.2H30.8096ZM36.8799 64.67V70.69H37.5899C39.2299 70.69 40.2999 70.65 41.5199 70.42L41.3999 69.42C40.3599 69.62 39.4299 69.67 38.1099 69.68V65.67H40.9199V64.67H36.8799ZM40.4899 67.99H42.7099V72.86H43.9499V63.87H42.7099V66.98H40.4899V67.99ZM47.4848 69.25V70.26H50.9148V72.86H52.1448V70.26H55.5948V69.25H47.4848ZM47.9048 67.79L48.3448 68.77C49.8648 68.59 50.9648 67.97 51.5348 67.14C52.1148 67.96 53.2048 68.59 54.7148 68.77L55.1548 67.79C53.3248 67.58 52.3248 66.69 52.1748 65.89H54.8448V64.91H52.1448V63.9H50.9148V64.91H48.2148V65.89H50.8748C50.7348 66.71 49.7448 67.58 47.9048 67.79ZM61.985 63.86V72.84H63.235V68.34H64.495V67.32H63.235V63.86H61.985ZM56.155 70.33L56.845 71.28C59.815 69.78 60.855 67.48 60.855 64.79H56.635V65.8H59.595C59.365 67.8 58.255 69.25 56.155 70.33Z" fill="#858585"/>
<circle cx="40" cy="36" r="16" fill="#EBEBEB"/>
<path d="M40 31V41" stroke="#858585" stroke-width="3" stroke-linecap="round" stroke-linejoin="round"/>
<path d="M35 35.9995H45" stroke="#858585" stroke-width="3" stroke-linecap="round" stroke-linejoin="round"/>
<rect x="0.5" y="0.5" width="79" height="79" rx="9.5" stroke="#EBEBEB"/>
</svg>
