<svg width="24" height="24" viewBox="0 0 24 24" fill="none" xmlns="http://www.w3.org/2000/svg">
<path d="M15.0769 4.5H18.7692C19.5077 4.5 20 5 20 5.75V7H4V5.75C4 5 4.61538 4.5 5.23077 4.5H8.92308C9.16923 3.125 10.5231 2 12 2C13.4769 2 14.8308 3.125 15.0769 4.5ZM10.1538 4.5H13.8462C13.6 3.75 12.7385 3.25 12 3.25C11.2615 3.25 10.4 3.75 10.1538 4.5ZM5.23077 8.25H18.7692L17.6615 20.875C17.6615 21.5 17.0462 22 16.4308 22H7.56923C6.95385 22 6.46154 21.5 6.33846 20.875L5.23077 8.25Z" fill="#292929"/>
</svg>
