<svg width="72" height="72" viewBox="0 0 72 72" fill="none" xmlns="http://www.w3.org/2000/svg">
<g clip-path="url(#clip0_1217_6015)">
<path d="M72 54C72 56.1217 71.1571 58.1566 69.6569 59.6568C68.1566 61.1571 66.1217 62 64 62H8C5.87827 62 3.84344 61.1571 2.34315 59.6568C0.842855 58.1566 0 56.1217 0 54V18C0 15.8783 0.842855 13.8434 2.34315 12.3431C3.84344 10.8429 5.87827 10 8 10H64C66.1217 10 68.1566 10.8429 69.6569 12.3431C71.1571 13.8434 72 15.8783 72 18V54Z" fill="#CCD6DD"/>
<path d="M23.8981 35.272L1.27405 57.896C1.22005 57.954 1.20005 58.024 1.15405 58.08C1.83405 59.22 2.78205 60.166 3.92205 60.848C3.98005 60.802 4.04805 60.782 4.10205 60.728L26.7301 38.1C26.9157 37.9141 27.063 37.6934 27.1634 37.4505C27.2638 37.2077 27.3154 36.9474 27.3152 36.6846C27.315 36.4218 27.263 36.1617 27.1623 35.9189C27.0616 35.6762 26.914 35.4557 26.7281 35.2701C26.5421 35.0844 26.3214 34.9371 26.0785 34.8367C25.8357 34.7363 25.5754 34.6848 25.3126 34.6849C25.0499 34.6851 24.7897 34.7371 24.547 34.8378C24.3042 34.9385 24.0837 35.0861 23.8981 35.272ZM70.8461 58.08C70.8041 58.024 70.7801 57.954 70.7261 57.9L48.1021 35.272C47.9164 35.0862 47.6959 34.9388 47.4532 34.8382C47.2106 34.7376 46.9505 34.6857 46.6878 34.6856C46.4251 34.6856 46.1649 34.7372 45.9222 34.8376C45.6795 34.9381 45.4589 35.0854 45.2731 35.271C45.0872 35.4567 44.9398 35.6772 44.8392 35.9199C44.7386 36.1625 44.6868 36.4226 44.6867 36.6853C44.6866 36.948 44.7382 37.2082 44.8387 37.4509C44.9391 37.6937 45.0864 37.9142 45.2721 38.1L67.8981 60.728C67.9501 60.78 68.0221 60.802 68.0781 60.848C69.2169 60.1703 70.1683 59.2188 70.8461 58.08Z" fill="#99AAB5"/>
<path d="M64 10H8C5.87827 10 3.84344 10.8429 2.34315 12.3431C0.842855 13.8434 0 15.8783 0 18L0 20.06L29.054 49.052C30.8838 50.8709 33.359 51.8919 35.939 51.8919C38.519 51.8919 40.9942 50.8709 42.824 49.052L72 20.018V18C72 15.8783 71.1571 13.8434 69.6569 12.3431C68.1566 10.8429 66.1217 10 64 10Z" fill="#99AAB5"/>
<path d="M64.0001 10H8.00006C6.49453 10.0034 5.02063 10.4323 3.74844 11.2374C2.47624 12.0425 1.4576 13.1908 0.810059 14.55L30.3421 44.084C31.0849 44.8269 31.9669 45.4162 32.9375 45.8183C33.9081 46.2204 34.9485 46.4273 35.9991 46.4273C37.0497 46.4273 38.09 46.2204 39.0606 45.8183C40.0313 45.4162 40.9132 44.8269 41.6561 44.084L71.1901 14.55C70.5427 13.1907 69.5241 12.0422 68.2519 11.2371C66.9796 10.432 65.5056 10.0031 64.0001 10Z" fill="#E1E8ED"/>
<path d="M53.9999 33.5601C54.0002 32.2504 53.7425 30.9534 53.2414 29.7433C52.7404 28.5332 52.0059 27.4337 51.0799 26.5075C50.1539 25.5813 49.0545 24.8466 47.8445 24.3453C46.6345 23.8441 45.3377 23.5861 44.0279 23.5861C42.4421 23.5862 40.8792 23.9651 39.4693 24.6911C38.0594 25.4171 36.8432 26.4692 35.9219 27.7601C35.0011 26.4698 33.7855 25.418 32.3764 24.692C30.9672 23.966 29.4051 23.5869 27.8199 23.5861C25.1747 23.5861 22.6378 24.6369 20.7673 26.5074C18.8968 28.3779 17.8459 30.9148 17.8459 33.5601C17.8459 34.3421 17.9459 35.0981 18.1139 35.8261C19.4999 44.4301 29.0659 53.5081 35.9219 56.0001C42.7779 53.5081 52.3459 44.4301 53.7299 35.8281C53.8999 35.0981 53.9999 34.3401 53.9999 33.5601Z" fill="#DD2E44"/>
</g>
<defs>
<clipPath id="clip0_1217_6015">
<rect width="72" height="72" fill="white"/>
</clipPath>
</defs>
</svg>
