<svg width="12" height="12" viewBox="0 0 12 12" fill="none" xmlns="http://www.w3.org/2000/svg">
<path d="M11.3287 7.07523C11.1512 6.83758 10.9249 6.64068 10.6649 6.4978C10.1804 6.18585 9.86848 4.8385 9.79548 3.98231C9.79842 3.37126 9.6695 2.76676 9.4175 2.21008C9.16551 1.6534 8.79638 1.15764 8.3353 0.756643C7.68863 0.264393 6.898 -0.00148292 6.0853 6.22144e-06C6.05663 0.00329672 6.02768 0.00329672 5.99901 6.22144e-06C5.97257 0.00333787 5.94582 0.00333787 5.91937 6.22144e-06C5.11349 0.00286721 4.33052 0.268515 3.68928 0.756643C3.22683 1.1565 2.85675 1.65204 2.60464 2.20898C2.35252 2.76592 2.22439 3.37098 2.2291 3.98231C2.15609 4.8385 1.83751 6.18585 1.35964 6.4978C1.09971 6.64068 0.873399 6.83758 0.695919 7.07523C0.527133 7.30344 0.411482 7.56649 0.357422 7.84514V8.50886C0.358832 8.57018 0.377213 8.62991 0.41052 8.68142C0.895034 9.92257 5.99901 9.92921 5.99901 9.92921C5.99901 9.92921 11.103 9.92921 11.5941 8.68142C11.6227 8.62825 11.6386 8.56919 11.6406 8.50886V7.84514C11.5979 7.56774 11.4911 7.30413 11.3287 7.07523Z" fill="#292929"/>
<path d="M7.72532 10.7519C7.72532 10.7519 7.72532 10.6789 7.72532 10.6656C7.71392 10.6282 7.69061 10.5956 7.65895 10.5727C7.62043 10.5387 7.57092 10.5198 7.51957 10.5196C6.68992 10.5727 6.0262 10.5727 6.0262 10.5727C6.0262 10.5727 5.36249 10.5727 4.53948 10.5196C4.48789 10.5185 4.43792 10.5376 4.4001 10.5727C4.36028 10.5727 4.36027 10.6059 4.33372 10.6656C4.33147 10.6943 4.33147 10.7232 4.33372 10.7519V10.9775C4.33372 11.5351 5.097 11.9797 6.03948 11.9797C6.98195 11.9797 7.75187 11.5351 7.75187 10.9775L7.72532 10.7519Z" fill="#292929"/>
</svg>
